<?xml version="1.0" standalone="no"?><!DOCTYPE svg PUBLIC "-//W3C//DTD SVG 1.1//EN" "http://www.w3.org/Graphics/SVG/1.1/DTD/svg11.dtd"><svg t="1633521882549" class="icon" viewBox="0 0 1024 1024" version="1.1" xmlns="http://www.w3.org/2000/svg" p-id="1737" width="64" height="64" xmlns:xlink="http://www.w3.org/1999/xlink"><defs><style type="text/css"></style></defs><path d="M512 512m-512 0a512 512 0 1 0 1024 0 512 512 0 1 0-1024 0Z" fill="#88C5CC" p-id="1738"></path><path d="M512 1024c273.536 0 496.952-214.512 511.24-484.504L968 496 776 632 464 504 272 680 14.816 634.28C69.648 857.984 271.392 1024 512 1024z" fill="#406A80" p-id="1739"></path><path d="M981.056 486.752a16 16 0 0 0-22.304-3.808L773.928 613.856 470.072 489.2a15.936 15.936 0 0 0-16.872 3L267.024 662.856 10.904 617.328a503.76 503.76 0 0 0 8.456 34.008l249.84 44.416a16.064 16.064 0 0 0 13.616-3.952l184.504-169.144L769.928 646.8a15.96 15.96 0 0 0 15.32-1.744l192-136a15.992 15.992 0 0 0 3.808-22.304z" fill="#F5F5F5" p-id="1740"></path><path d="M776 632m-32 0a32 32 0 1 0 64 0 32 32 0 1 0-64 0Z" fill="#F5F5F5" p-id="1741"></path><path d="M776 600c17.68 0 32 14.32 32 32s-14.32 32-32 32-32-14.32-32-32 14.32-32 32-32m0-16c-26.472 0-48 21.528-48 48s21.528 48 48 48 48-21.528 48-48-21.528-48-48-48z" fill="#CC584C" p-id="1742"></path><path d="M968 496m-32 0a32 32 0 1 0 64 0 32 32 0 1 0-64 0Z" fill="#F5F5F5" p-id="1743"></path><path d="M968 464c17.68 0 32 14.32 32 32s-14.32 32-32 32-32-14.32-32-32 14.32-32 32-32m0-16c-26.472 0-48 21.528-48 48s21.528 48 48 48 48-21.528 48-48-21.528-48-48-48z" fill="#CC584C" p-id="1744"></path><path d="M464 504m-32 0a32 32 0 1 0 64 0 32 32 0 1 0-64 0Z" fill="#F5F5F5" p-id="1745"></path><path d="M464 472c17.68 0 32 14.32 32 32s-14.32 32-32 32-32-14.32-32-32 14.32-32 32-32m0-16c-26.472 0-48 21.528-48 48s21.528 48 48 48 48-21.528 48-48-21.528-48-48-48z" fill="#CC584C" p-id="1746"></path><path d="M272 680m-32 0a32 32 0 1 0 64 0 32 32 0 1 0-64 0Z" fill="#F5F5F5" p-id="1747"></path><path d="M272 648c17.68 0 32 14.32 32 32s-14.32 32-32 32-32-14.32-32-32 14.32-32 32-32m0-16c-26.472 0-48 21.528-48 48s21.528 48 48 48 48-21.528 48-48-21.528-48-48-48z" fill="#CC584C" p-id="1748"></path></svg>