<?xml version="1.0" standalone="no"?><!DOCTYPE svg PUBLIC "-//W3C//DTD SVG 1.1//EN" "http://www.w3.org/Graphics/SVG/1.1/DTD/svg11.dtd"><svg t="1633586347689" class="icon" viewBox="0 0 1024 1024" version="1.1" xmlns="http://www.w3.org/2000/svg" p-id="1737" width="192" height="192" xmlns:xlink="http://www.w3.org/1999/xlink"><defs><style type="text/css"></style></defs><path d="M489.074627 489.074627m-489.074627 0a489.074627 489.074627 0 1 0 978.149254 0 489.074627 489.074627 0 1 0-978.149254 0Z" fill="#2D4452" p-id="1738"></path><path d="M298.029851 382.089552h382.089552v641.910448H298.029851z" fill="#F5F5F5" p-id="1739"></path><path d="M649.552239 382.089552h30.567164v641.910448h-30.567164z" fill="#CCCCCC" p-id="1740"></path><path d="M298.029851 389.731343h30.567164v634.268657h-30.567164z" fill="#FFFFFF" p-id="1741"></path><path d="M298.029851 382.089552h382.089552v7.641791H298.029851z" fill="#CCCCCC" p-id="1742"></path><path d="M191.044776 290.38806c-8.40597 0-15.283582-6.877612-15.283582-15.283582v-61.134329c0-8.40597 6.877612-15.283582 15.283582-15.283582h596.059702c8.40597 0 15.283582 6.877612 15.283582 15.283582v61.134329c0 8.40597-6.877612 15.283582-15.283582 15.283582H191.044776z" fill="#F5F5F5" p-id="1743"></path><path d="M191.044776 275.104478v-61.134329c0-8.40597 6.877612-15.283582 15.283582-15.283582h-15.283582c-8.40597 0-15.283582 6.877612-15.283582 15.283582v61.134329c0 8.40597 6.877612 15.283582 15.283582 15.283582h15.283582c-8.40597 0-15.283582-6.877612-15.283582-15.283582z" fill="#FFFFFF" p-id="1744"></path><path d="M787.104478 198.686567h-30.567165c8.40597 0 15.283582 6.877612 15.283583 15.283582v61.134329c0 8.40597-6.877612 15.283582-15.283583 15.283582h30.567165c8.40597 0 15.283582-6.877612 15.283582-15.283582v-61.134329c0-8.40597-6.877612-15.283582-15.283582-15.283582zM756.537313 290.38806v76.41791c0 8.40597-6.877612 15.283582-15.283582 15.283582H236.895522c-8.40597 0-15.283582-6.877612-15.283582-15.283582V290.38806h534.925373z" fill="#E6E6E6" p-id="1745"></path><path d="M236.895522 366.80597V290.38806h-15.283582v76.41791c0 8.40597 6.877612 15.283582 15.283582 15.283582h15.283582c-8.40597 0-15.283582-6.877612-15.283582-15.283582z" fill="#F5F5F5" p-id="1746"></path><path d="M725.970149 290.38806v76.41791c0 8.40597-6.877612 15.283582-15.283582 15.283582h30.567164c8.40597 0 15.283582-6.877612 15.283582-15.283582V290.38806h-30.567164z" fill="#CCCCCC" p-id="1747"></path><path d="M221.61194 290.38806h534.925373v7.641791H221.61194zM397.373134 458.507463v481.432836a22.933015 22.933015 0 0 1-45.850746 0V458.507463a22.933015 22.933015 0 0 1 45.850746 0z m213.97015-22.925373c-12.654806 0-22.925373 10.270567-22.925374 22.925373v481.432836a22.933015 22.933015 0 0 0 45.850747 0V458.507463c0-12.654806-10.270567-22.925373-22.925373-22.925373z m-122.268657 0c-12.654806 0-22.925373 10.270567-22.925373 22.925373v481.432836a22.933015 22.933015 0 0 0 45.850746 0V458.507463c0-12.654806-10.270567-22.925373-22.925373-22.925373z" fill="#CCCCCC" p-id="1748"></path><path d="M374.447761 435.58209c-1.314388 0-2.567642 0.175761-3.820895 0.389731A22.879522 22.879522 0 0 1 389.731343 458.507463v481.432836a22.879522 22.879522 0 0 1-19.104477 22.535641c1.253254 0.21397 2.506507 0.389731 3.820895 0.389732 12.654806 0 22.925373-10.270567 22.925373-22.925373V458.507463c0-12.654806-10.270567-22.925373-22.925373-22.925373zM489.074627 435.58209c-1.314388 0-2.567642 0.175761-3.820896 0.389731A22.879522 22.879522 0 0 1 504.358209 458.507463v481.432836a22.879522 22.879522 0 0 1-19.104478 22.535641c1.253254 0.21397 2.506507 0.389731 3.820896 0.389732 12.654806 0 22.925373-10.270567 22.925373-22.925373V458.507463c0-12.654806-10.270567-22.925373-22.925373-22.925373zM611.343284 435.58209c-1.314388 0-2.567642 0.175761-3.820896 0.389731A22.879522 22.879522 0 0 1 626.626866 458.507463v481.432836a22.879522 22.879522 0 0 1-19.104478 22.535641c1.253254 0.21397 2.506507 0.389731 3.820896 0.389732 12.654806 0 22.925373-10.270567 22.925373-22.925373V458.507463c0-12.654806-10.270567-22.925373-22.925373-22.925373z" fill="#FFFFFF" p-id="1749"></path><path d="M366.80597 939.940299V458.507463c0-9.972537 6.403821-18.355582 15.283582-21.519284A22.818388 22.818388 0 0 0 374.447761 435.58209c-12.654806 0-22.925373 10.270567-22.925373 22.925373v481.432836c0 12.654806 10.270567 22.925373 22.925373 22.925373 2.697552 0 5.242269-0.550209 7.641791-1.40609A22.864239 22.864239 0 0 1 366.80597 939.940299zM603.701493 939.940299V458.507463c0-9.972537 6.403821-18.355582 15.283582-21.519284A22.818388 22.818388 0 0 0 611.343284 435.58209c-12.654806 0-22.925373 10.270567-22.925374 22.925373v481.432836c0 12.654806 10.270567 22.925373 22.925374 22.925373 2.697552 0 5.242269-0.550209 7.641791-1.40609A22.864239 22.864239 0 0 1 603.701493 939.940299zM481.432836 939.940299V458.507463c0-9.972537 6.403821-18.355582 15.283582-21.519284A22.818388 22.818388 0 0 0 489.074627 435.58209c-12.654806 0-22.925373 10.270567-22.925373 22.925373v481.432836c0 12.654806 10.270567 22.925373 22.925373 22.925373 2.697552 0 5.242269-0.550209 7.641791-1.40609A22.864239 22.864239 0 0 1 481.432836 939.940299z" fill="#B3B3B3" p-id="1750"></path></svg>